<svg xmlns="http://www.w3.org/2000/svg" xmlns:xlink="http://www.w3.org/1999/xlink" width="500" zoomAndPan="magnify" viewBox="0 0 375 374.999991" height="500" preserveAspectRatio="xMidYMid meet" version="1.0"><defs><g/><clipPath id="ffdb829217"><path d="M 3.535156 106.902344 L 131.785156 106.902344 L 131.785156 250.902344 L 3.535156 250.902344 Z M 3.535156 106.902344 " clip-rule="nonzero"/></clipPath></defs><g clip-path="url(#ffdb829217)"><path fill="#ffffff" d="M 58.617188 241.789062 C 58.609375 241.917969 58.578125 242.039062 58.578125 242.171875 C 58.578125 247.085938 62.578125 251.085938 67.496094 251.085938 C 72.414062 251.085938 76.414062 247.085938 76.414062 242.171875 C 76.414062 240.679688 76.011719 239.296875 75.359375 238.058594 L 114.714844 215.347656 C 116.300781 217.839844 119.066406 219.507812 122.230469 219.507812 C 127.144531 219.507812 131.144531 215.503906 131.144531 210.589844 C 131.144531 207.160156 129.179688 204.214844 126.335938 202.722656 L 126.335938 155.269531 C 129.179688 153.777344 131.144531 150.828125 131.144531 147.398438 C 131.144531 142.484375 127.144531 138.484375 122.230469 138.484375 C 119.058594 138.484375 116.285156 140.160156 114.703125 142.664062 L 75.347656 119.953125 C 76.003906 118.710938 76.414062 117.320312 76.414062 115.820312 C 76.414062 110.902344 72.410156 106.902344 67.496094 106.902344 C 62.582031 106.902344 58.578125 110.902344 58.578125 115.820312 C 58.578125 115.949219 58.609375 116.074219 58.617188 116.203125 L 17.546875 139.902344 C 16.160156 139.015625 14.527344 138.484375 12.761719 138.484375 C 7.84375 138.484375 3.84375 142.480469 3.84375 147.398438 C 3.84375 150.828125 5.8125 153.777344 8.65625 155.269531 L 8.65625 202.722656 C 5.8125 204.214844 3.84375 207.160156 3.84375 210.589844 C 3.84375 215.503906 7.84375 219.507812 12.761719 219.507812 C 14.527344 219.507812 16.160156 218.976562 17.542969 218.089844 Z M 62.710938 123.316406 C 64.003906 124.144531 65.523438 124.636719 67.15625 124.699219 L 67.15625 146.816406 L 44.578125 133.78125 L 62.714844 123.316406 Z M 44.601562 224.222656 L 67.15625 211.199219 L 67.15625 233.289062 C 65.523438 233.351562 64.003906 233.84375 62.710938 234.671875 Z M 40.472656 221.839844 L 40.472656 195.402344 L 66.8125 210.613281 L 43.917969 223.828125 L 40.472656 221.84375 Z M 16.867188 177.035156 L 39.789062 163.804688 L 39.789062 194.21875 L 16.867188 180.988281 Z M 59.652344 183.144531 L 40.472656 194.21875 L 40.472656 163.796875 L 59.640625 174.867188 C 58.984375 176.109375 58.578125 177.5 58.578125 178.996094 C 58.578125 180.5 58.988281 181.898438 59.652344 183.144531 Z M 59.980469 183.746094 C 61.503906 186.148438 64.132812 187.757812 67.15625 187.875 L 67.15625 210.015625 L 40.820312 194.808594 Z M 76.371094 178.613281 L 94.519531 168.136719 L 94.519531 194.222656 L 75.335938 183.144531 C 76 181.898438 76.410156 180.5 76.410156 178.996094 C 76.410156 178.863281 76.378906 178.742188 76.371094 178.613281 Z M 59.964844 174.265625 L 40.816406 163.207031 L 67.152344 148.003906 L 67.152344 170.113281 C 64.121094 170.230469 61.488281 171.851562 59.964844 174.265625 Z M 21.640625 147.015625 L 39.789062 136.546875 L 39.789062 162.609375 L 20.613281 151.539062 C 21.269531 150.296875 21.679688 148.898438 21.679688 147.398438 C 21.679688 147.269531 21.644531 147.148438 21.640625 147.015625 Z M 20.285156 152.140625 L 39.445312 163.207031 L 16.867188 176.246094 L 16.867188 155.269531 C 18.261719 154.539062 19.441406 153.46875 20.285156 152.140625 Z M 39.449219 194.808594 L 20.296875 205.871094 C 19.457031 204.535156 18.273438 203.457031 16.867188 202.71875 L 16.867188 181.773438 Z M 20.621094 206.472656 L 39.785156 195.40625 L 39.785156 221.445312 L 21.636719 210.976562 C 21.644531 210.84375 21.675781 210.722656 21.675781 210.59375 C 21.675781 209.101562 21.269531 207.714844 20.621094 206.476562 Z M 67.839844 187.875 C 70.859375 187.757812 73.488281 186.144531 75.015625 183.746094 L 94.175781 194.8125 L 67.839844 210.019531 Z M 95.207031 167.738281 L 98.613281 165.773438 L 118.125 177.035156 L 118.125 180.984375 L 95.207031 194.214844 Z M 117.449219 154.902344 C 117.664062 155.039062 117.898438 155.152344 118.125 155.269531 L 118.125 176.246094 L 99.300781 165.378906 Z M 72.277344 171.496094 C 70.984375 170.671875 69.46875 170.175781 67.835938 170.113281 L 67.835938 148.003906 L 90.40625 161.03125 Z M 66.808594 147.410156 L 40.46875 162.617188 L 40.46875 136.152344 L 43.890625 134.179688 Z M 94.519531 195.402344 L 94.519531 225.816406 L 68.179688 210.609375 Z M 118.125 181.777344 L 118.125 202.722656 C 116.722656 203.457031 115.535156 204.535156 114.695312 205.871094 L 95.542969 194.808594 L 118.125 181.773438 Z M 91.089844 160.636719 L 68.179688 147.410156 L 94.519531 132.203125 L 94.519531 158.660156 Z M 67.839844 233.289062 L 67.839844 211.203125 L 94.175781 226.40625 L 75.03125 237.457031 C 73.507812 235.035156 70.871094 233.410156 67.835938 233.289062 Z M 95.207031 225.8125 L 95.207031 195.402344 L 114.367188 206.472656 C 113.714844 207.707031 113.3125 209.097656 113.3125 210.585938 C 113.3125 212.09375 113.722656 213.496094 114.386719 214.746094 L 95.203125 225.8125 Z M 113.347656 147.785156 L 95.203125 158.261719 L 95.203125 132.203125 L 114.371094 143.265625 C 113.714844 144.507812 113.308594 145.902344 113.308594 147.398438 C 113.308594 147.53125 113.339844 147.65625 113.347656 147.785156 Z M 94.175781 131.609375 L 67.839844 146.816406 L 67.839844 124.699219 C 70.867188 124.582031 73.496094 122.964844 75.019531 120.554688 Z M 94.175781 131.609375 " fill-opacity="1" fill-rule="nonzero"/></g><g fill="#ffffff" fill-opacity="1"><g transform="translate(148.003821, 199.236502)"><g><path d="M 5.28125 -5.203125 L 3.015625 -5.203125 L 3.015625 0 L 1.390625 0 L 1.390625 -12.875 L 5 -12.875 C 6.257812 -12.875 7.210938 -12.546875 7.859375 -11.890625 C 8.503906 -11.234375 8.828125 -10.269531 8.828125 -9 C 8.828125 -8.207031 8.648438 -7.515625 8.296875 -6.921875 C 7.953125 -6.328125 7.457031 -5.878906 6.8125 -5.578125 L 9.3125 -0.109375 L 9.3125 0 L 7.5625 0 Z M 3.015625 -6.59375 L 4.984375 -6.59375 C 5.660156 -6.59375 6.195312 -6.8125 6.59375 -7.25 C 7 -7.6875 7.203125 -8.269531 7.203125 -9 C 7.203125 -10.65625 6.453125 -11.484375 4.953125 -11.484375 L 3.015625 -11.484375 Z M 3.015625 -6.59375 "/></g></g></g><g fill="#ffffff" fill-opacity="1"><g transform="translate(162.473592, 199.236502)"><g><path d="M 9.765625 -5.3125 C 9.765625 -3.550781 9.390625 -2.195312 8.640625 -1.25 C 7.890625 -0.300781 6.828125 0.171875 5.453125 0.171875 C 4.117188 0.171875 3.066406 -0.285156 2.296875 -1.203125 C 1.535156 -2.128906 1.140625 -3.4375 1.109375 -5.125 L 1.109375 -7.546875 C 1.109375 -9.265625 1.488281 -10.609375 2.25 -11.578125 C 3.007812 -12.554688 4.066406 -13.046875 5.421875 -13.046875 C 6.785156 -13.046875 7.84375 -12.578125 8.59375 -11.640625 C 9.351562 -10.710938 9.742188 -9.382812 9.765625 -7.65625 Z M 8.140625 -7.5625 C 8.140625 -8.925781 7.914062 -9.9375 7.46875 -10.59375 C 7.03125 -11.257812 6.347656 -11.59375 5.421875 -11.59375 C 4.535156 -11.59375 3.863281 -11.253906 3.40625 -10.578125 C 2.945312 -9.910156 2.71875 -8.921875 2.71875 -7.609375 L 2.71875 -5.3125 C 2.71875 -3.988281 2.941406 -2.984375 3.390625 -2.296875 C 3.847656 -1.609375 4.53125 -1.265625 5.4375 -1.265625 C 6.351562 -1.265625 7.03125 -1.582031 7.46875 -2.21875 C 7.90625 -2.851562 8.128906 -3.828125 8.140625 -5.140625 Z M 8.140625 -7.5625 "/></g></g></g><g fill="#ffffff" fill-opacity="1"><g transform="translate(178.207965, 199.236502)"><g><path d="M 3.015625 -1.390625 L 8.0625 -1.390625 L 8.0625 0 L 1.390625 0 L 1.390625 -12.875 L 3.015625 -12.875 Z M 3.015625 -1.390625 "/></g></g></g><g fill="#ffffff" fill-opacity="1"><g transform="translate(191.669586, 199.236502)"><g><path d="M 7.359375 -5.6875 L 3 -5.6875 L 3 0 L 1.390625 0 L 1.390625 -12.875 L 8.09375 -12.875 L 8.09375 -11.484375 L 3 -11.484375 L 3 -7.078125 L 7.359375 -7.078125 Z M 7.359375 -5.6875 "/></g></g></g><g fill="#ffffff" fill-opacity="1"><g transform="translate(205.228476, 199.236502)"><g/></g></g><g fill="#ffffff" fill-opacity="1"><g transform="translate(214.233011, 199.236502)"><g><path d="M 7.015625 -3.25 C 7.015625 -3.894531 6.835938 -4.390625 6.484375 -4.734375 C 6.140625 -5.078125 5.515625 -5.410156 4.609375 -5.734375 C 3.703125 -6.054688 3.003906 -6.394531 2.515625 -6.75 C 2.035156 -7.101562 1.675781 -7.507812 1.4375 -7.96875 C 1.207031 -8.425781 1.09375 -8.953125 1.09375 -9.546875 C 1.09375 -10.566406 1.429688 -11.40625 2.109375 -12.0625 C 2.785156 -12.71875 3.675781 -13.046875 4.78125 -13.046875 C 5.539062 -13.046875 6.210938 -12.875 6.796875 -12.53125 C 7.390625 -12.195312 7.84375 -11.726562 8.15625 -11.125 C 8.476562 -10.53125 8.640625 -9.875 8.640625 -9.15625 L 7.015625 -9.15625 C 7.015625 -9.945312 6.820312 -10.5625 6.4375 -11 C 6.050781 -11.4375 5.5 -11.65625 4.78125 -11.65625 C 4.125 -11.65625 3.613281 -11.472656 3.25 -11.109375 C 2.894531 -10.742188 2.71875 -10.226562 2.71875 -9.5625 C 2.71875 -9.019531 2.910156 -8.566406 3.296875 -8.203125 C 3.691406 -7.835938 4.296875 -7.507812 5.109375 -7.21875 C 6.378906 -6.800781 7.285156 -6.285156 7.828125 -5.671875 C 8.367188 -5.054688 8.640625 -4.253906 8.640625 -3.265625 C 8.640625 -2.222656 8.300781 -1.390625 7.625 -0.765625 C 6.945312 -0.140625 6.023438 0.171875 4.859375 0.171875 C 4.109375 0.171875 3.414062 0.0078125 2.78125 -0.3125 C 2.15625 -0.632812 1.660156 -1.09375 1.296875 -1.6875 C 0.929688 -2.28125 0.75 -2.960938 0.75 -3.734375 L 2.375 -3.734375 C 2.375 -2.929688 2.597656 -2.3125 3.046875 -1.875 C 3.492188 -1.4375 4.097656 -1.21875 4.859375 -1.21875 C 5.578125 -1.21875 6.113281 -1.398438 6.46875 -1.765625 C 6.832031 -2.128906 7.015625 -2.625 7.015625 -3.25 Z M 7.015625 -3.25 "/></g></g></g><g fill="#ffffff" fill-opacity="1"><g transform="translate(228.472853, 199.236502)"><g><path d="M 9.46875 -4.078125 C 9.394531 -2.703125 9.003906 -1.648438 8.296875 -0.921875 C 7.585938 -0.191406 6.59375 0.171875 5.3125 0.171875 C 4.019531 0.171875 2.992188 -0.316406 2.234375 -1.296875 C 1.472656 -2.273438 1.09375 -3.601562 1.09375 -5.28125 L 1.09375 -7.625 C 1.09375 -9.300781 1.484375 -10.625 2.265625 -11.59375 C 3.046875 -12.5625 4.113281 -13.046875 5.46875 -13.046875 C 6.707031 -13.046875 7.664062 -12.671875 8.34375 -11.921875 C 9.03125 -11.179688 9.40625 -10.117188 9.46875 -8.734375 L 7.828125 -8.734375 C 7.753906 -9.785156 7.53125 -10.535156 7.15625 -10.984375 C 6.789062 -11.429688 6.226562 -11.65625 5.46875 -11.65625 C 4.582031 -11.65625 3.90625 -11.3125 3.4375 -10.625 C 2.96875 -9.9375 2.734375 -8.929688 2.734375 -7.609375 L 2.734375 -5.25 C 2.734375 -3.945312 2.953125 -2.945312 3.390625 -2.25 C 3.828125 -1.550781 4.46875 -1.203125 5.3125 -1.203125 C 6.15625 -1.203125 6.757812 -1.410156 7.125 -1.828125 C 7.5 -2.242188 7.734375 -2.992188 7.828125 -4.078125 Z M 9.46875 -4.078125 "/></g></g></g><g fill="#ffffff" fill-opacity="1"><g transform="translate(243.597038, 199.236502)"><g><path d="M 9.8125 0 L 8.1875 0 L 8.1875 -5.953125 L 3 -5.953125 L 3 0 L 1.390625 0 L 1.390625 -12.875 L 3 -12.875 L 3 -7.34375 L 8.1875 -7.34375 L 8.1875 -12.875 L 9.8125 -12.875 Z M 9.8125 0 "/></g></g></g><g fill="#ffffff" fill-opacity="1"><g transform="translate(259.685147, 199.236502)"><g><path d="M 3.46875 -12.875 L 6.828125 -2.375 L 10.203125 -12.875 L 12.28125 -12.875 L 12.28125 0 L 10.65625 0 L 10.65625 -5.015625 L 10.8125 -10.03125 L 7.453125 0 L 6.203125 0 L 2.859375 -10 L 3 -5.015625 L 3 0 L 1.390625 0 L 1.390625 -12.875 Z M 3.46875 -12.875 "/></g></g></g><g fill="#ffffff" fill-opacity="1"><g transform="translate(278.222894, 199.236502)"><g><path d="M 7.5625 -5.953125 L 3 -5.953125 L 3 -1.390625 L 8.3125 -1.390625 L 8.3125 0 L 1.390625 0 L 1.390625 -12.875 L 8.21875 -12.875 L 8.21875 -11.484375 L 3 -11.484375 L 3 -7.34375 L 7.5625 -7.34375 Z M 7.5625 -5.953125 "/></g></g></g><g fill="#ffffff" fill-opacity="1"><g transform="translate(292.073626, 199.236502)"><g><path d="M 3.078125 0 L 1.453125 0 L 1.453125 -12.875 L 3.078125 -12.875 Z M 3.078125 0 "/></g></g></g><g fill="#ffffff" fill-opacity="1"><g transform="translate(301.458419, 199.236502)"><g><path d="M 5.28125 -5.203125 L 3.015625 -5.203125 L 3.015625 0 L 1.390625 0 L 1.390625 -12.875 L 5 -12.875 C 6.257812 -12.875 7.210938 -12.546875 7.859375 -11.890625 C 8.503906 -11.234375 8.828125 -10.269531 8.828125 -9 C 8.828125 -8.207031 8.648438 -7.515625 8.296875 -6.921875 C 7.953125 -6.328125 7.457031 -5.878906 6.8125 -5.578125 L 9.3125 -0.109375 L 9.3125 0 L 7.5625 0 Z M 3.015625 -6.59375 L 4.984375 -6.59375 C 5.660156 -6.59375 6.195312 -6.8125 6.59375 -7.25 C 7 -7.6875 7.203125 -8.269531 7.203125 -9 C 7.203125 -10.65625 6.453125 -11.484375 4.953125 -11.484375 L 3.015625 -11.484375 Z M 3.015625 -6.59375 "/></g></g></g><g fill="#ffffff" fill-opacity="1"><g transform="translate(315.928191, 199.236502)"><g><path d="M 3.078125 0 L 1.453125 0 L 1.453125 -12.875 L 3.078125 -12.875 Z M 3.078125 0 "/></g></g></g><g fill="#ffffff" fill-opacity="1"><g transform="translate(325.312984, 199.236502)"><g><path d="M 7.5625 -5.953125 L 3 -5.953125 L 3 -1.390625 L 8.3125 -1.390625 L 8.3125 0 L 1.390625 0 L 1.390625 -12.875 L 8.21875 -12.875 L 8.21875 -11.484375 L 3 -11.484375 L 3 -7.34375 L 7.5625 -7.34375 Z M 7.5625 -5.953125 "/></g></g></g><g fill="#ffffff" fill-opacity="1"><g transform="translate(339.163716, 199.236502)"><g><path d="M 7.015625 -3.25 C 7.015625 -3.894531 6.835938 -4.390625 6.484375 -4.734375 C 6.140625 -5.078125 5.515625 -5.410156 4.609375 -5.734375 C 3.703125 -6.054688 3.003906 -6.394531 2.515625 -6.75 C 2.035156 -7.101562 1.675781 -7.507812 1.4375 -7.96875 C 1.207031 -8.425781 1.09375 -8.953125 1.09375 -9.546875 C 1.09375 -10.566406 1.429688 -11.40625 2.109375 -12.0625 C 2.785156 -12.71875 3.675781 -13.046875 4.78125 -13.046875 C 5.539062 -13.046875 6.210938 -12.875 6.796875 -12.53125 C 7.390625 -12.195312 7.84375 -11.726562 8.15625 -11.125 C 8.476562 -10.53125 8.640625 -9.875 8.640625 -9.15625 L 7.015625 -9.15625 C 7.015625 -9.945312 6.820312 -10.5625 6.4375 -11 C 6.050781 -11.4375 5.5 -11.65625 4.78125 -11.65625 C 4.125 -11.65625 3.613281 -11.472656 3.25 -11.109375 C 2.894531 -10.742188 2.71875 -10.226562 2.71875 -9.5625 C 2.71875 -9.019531 2.910156 -8.566406 3.296875 -8.203125 C 3.691406 -7.835938 4.296875 -7.507812 5.109375 -7.21875 C 6.378906 -6.800781 7.285156 -6.285156 7.828125 -5.671875 C 8.367188 -5.054688 8.640625 -4.253906 8.640625 -3.265625 C 8.640625 -2.222656 8.300781 -1.390625 7.625 -0.765625 C 6.945312 -0.140625 6.023438 0.171875 4.859375 0.171875 C 4.109375 0.171875 3.414062 0.0078125 2.78125 -0.3125 C 2.15625 -0.632812 1.660156 -1.09375 1.296875 -1.6875 C 0.929688 -2.28125 0.75 -2.960938 0.75 -3.734375 L 2.375 -3.734375 C 2.375 -2.929688 2.597656 -2.3125 3.046875 -1.875 C 3.492188 -1.4375 4.097656 -1.21875 4.859375 -1.21875 C 5.578125 -1.21875 6.113281 -1.398438 6.46875 -1.765625 C 6.832031 -2.128906 7.015625 -2.625 7.015625 -3.25 Z M 7.015625 -3.25 "/></g></g></g><g fill="#ffffff" fill-opacity="1"><g transform="translate(145.8821, 174.619798)"><g><path d="M 1.5 -20.546875 L 8.84375 -20.546875 C 10.820312 -20.546875 12.429688 -20.019531 13.671875 -18.96875 C 14.921875 -17.914062 15.546875 -16.410156 15.546875 -14.453125 C 15.546875 -12.929688 15.164062 -11.660156 14.40625 -10.640625 C 13.65625 -9.617188 12.628906 -8.90625 11.328125 -8.5 L 18.40625 0 L 12.453125 0 L 6.171875 -8.125 L 6.171875 0 L 1.5 0 Z M 6.171875 -11.4375 L 6.71875 -11.4375 C 7.15625 -11.4375 7.519531 -11.441406 7.8125 -11.453125 C 8.113281 -11.472656 8.457031 -11.53125 8.84375 -11.625 C 9.226562 -11.726562 9.535156 -11.867188 9.765625 -12.046875 C 9.992188 -12.234375 10.191406 -12.5 10.359375 -12.84375 C 10.523438 -13.195312 10.609375 -13.625 10.609375 -14.125 C 10.609375 -14.625 10.523438 -15.046875 10.359375 -15.390625 C 10.191406 -15.742188 9.992188 -16.007812 9.765625 -16.1875 C 9.535156 -16.375 9.226562 -16.515625 8.84375 -16.609375 C 8.457031 -16.710938 8.113281 -16.769531 7.8125 -16.78125 C 7.519531 -16.800781 7.15625 -16.8125 6.71875 -16.8125 L 6.171875 -16.8125 Z M 6.171875 -11.4375 "/></g></g></g><g fill="#ffffff" fill-opacity="1"><g transform="translate(170.388608, 174.619798)"><g><path d="M 0.578125 -10.28125 C 0.578125 -13.257812 1.585938 -15.773438 3.609375 -17.828125 C 5.640625 -19.890625 8.082031 -20.921875 10.9375 -20.921875 C 13.8125 -20.921875 16.25 -19.894531 18.25 -17.84375 C 20.257812 -15.789062 21.265625 -13.269531 21.265625 -10.28125 C 21.265625 -7.28125 20.273438 -4.753906 18.296875 -2.703125 C 16.328125 -0.648438 13.875 0.375 10.9375 0.375 C 7.925781 0.375 5.445312 -0.640625 3.5 -2.671875 C 1.550781 -4.710938 0.578125 -7.25 0.578125 -10.28125 Z M 5.625 -10.28125 C 5.625 -9.207031 5.789062 -8.222656 6.125 -7.328125 C 6.457031 -6.441406 7.035156 -5.691406 7.859375 -5.078125 C 8.691406 -4.460938 9.71875 -4.15625 10.9375 -4.15625 C 12.675781 -4.15625 13.988281 -4.753906 14.875 -5.953125 C 15.769531 -7.148438 16.21875 -8.59375 16.21875 -10.28125 C 16.21875 -11.957031 15.765625 -13.394531 14.859375 -14.59375 C 13.953125 -15.800781 12.644531 -16.40625 10.9375 -16.40625 C 9.238281 -16.40625 7.925781 -15.800781 7 -14.59375 C 6.082031 -13.394531 5.625 -11.957031 5.625 -10.28125 Z M 5.625 -10.28125 "/></g></g></g><g fill="#ffffff" fill-opacity="1"><g transform="translate(198.904104, 174.619798)"><g><path d="M 1.5 -20.546875 L 7.875 -20.546875 C 9.800781 -20.546875 11.335938 -20.132812 12.484375 -19.3125 C 13.628906 -18.488281 14.203125 -17.15625 14.203125 -15.3125 C 14.203125 -13.257812 13.34375 -11.789062 11.625 -10.90625 C 14.550781 -10.394531 16.015625 -8.671875 16.015625 -5.734375 C 16.015625 -4.003906 15.414062 -2.613281 14.21875 -1.5625 C 13.019531 -0.519531 11.378906 0 9.296875 0 L 1.5 0 Z M 6.171875 -12.5 L 6.546875 -12.5 C 7.597656 -12.5 8.378906 -12.679688 8.890625 -13.046875 C 9.398438 -13.410156 9.65625 -14.007812 9.65625 -14.84375 C 9.65625 -16.238281 8.617188 -16.9375 6.546875 -16.9375 L 6.171875 -16.9375 Z M 6.171875 -3.609375 L 7.640625 -3.609375 C 9.929688 -3.609375 11.078125 -4.375 11.078125 -5.90625 C 11.078125 -6.8125 10.789062 -7.460938 10.21875 -7.859375 C 9.644531 -8.265625 8.785156 -8.46875 7.640625 -8.46875 L 6.171875 -8.46875 Z M 6.171875 -3.609375 "/></g></g></g><g fill="#ffffff" fill-opacity="1"><g transform="translate(222.165583, 174.619798)"><g><path d="M 6.171875 -20.546875 L 6.171875 0 L 1.5 0 L 1.5 -20.546875 Z M 6.171875 -20.546875 "/></g></g></g><g fill="#ffffff" fill-opacity="1"><g transform="translate(236.512644, 174.619798)"><g><path d="M 6.171875 -12.75 L 6.171875 0 L 1.5 0 L 1.5 -20.546875 L 6.171875 -20.546875 L 14.34375 -7.796875 L 14.390625 -7.796875 L 14.390625 -20.546875 L 19.078125 -20.546875 L 19.078125 0 L 14.390625 0 L 6.21875 -12.75 Z M 6.171875 -12.75 "/></g></g></g><path stroke-linecap="butt" transform="matrix(0.75, 0, 0, 0.75, 138.126295, 180.793639)" fill="none" stroke-linejoin="miter" d="M -0.00172724 0.499106 L 291.258709 0.499106 " stroke="#ffffff" stroke-width="1" stroke-opacity="1" stroke-miterlimit="4"/></svg>